<mxfile host="app.diagrams.net" modified="2022-12-14T20:29:16.689Z" agent="5.0 (X11)" etag="8iyxBldVum0rYAv6f6Ef" version="20.7.2" type="github">
  <diagram name="Page-1" id="c7558073-3199-34d8-9f00-42111426c3f3">
    <mxGraphModel dx="880" dy="478" grid="1" gridSize="10" guides="1" tooltips="1" connect="1" arrows="1" fold="1" page="1" pageScale="1" pageWidth="826" pageHeight="1169" background="none" math="0" shadow="0">
      <root>
        <mxCell id="0" />
        <mxCell id="1" parent="0" />
        <mxCell id="88" value="" style="edgeStyle=elbowEdgeStyle;elbow=horizontal;strokeColor=#990000;strokeWidth=2;startArrow=classic;startFill=1;endArrow=classic;endFill=1;entryX=0.5;entryY=0;entryDx=0;entryDy=0;exitX=0.5;exitY=1;exitDx=0;exitDy=0;" parent="1" source="qDI1Qx--c8H5x65NJ5Sx-105" target="hRFAbsjcRLbfjvgZ6pab-96" edge="1">
          <mxGeometry width="100" height="100" relative="1" as="geometry">
            <mxPoint x="410" y="430" as="sourcePoint" />
            <mxPoint x="410" y="530" as="targetPoint" />
            <Array as="points">
              <mxPoint x="412" y="460" />
              <mxPoint x="816" y="530" />
              <mxPoint x="818" y="480" />
              <mxPoint x="816" y="440" />
              <mxPoint x="816" y="490" />
              <mxPoint x="797" y="480" />
            </Array>
          </mxGeometry>
        </mxCell>
        <mxCell id="qDI1Qx--c8H5x65NJ5Sx-117" value="spi" style="edgeLabel;html=1;align=center;verticalAlign=middle;resizable=0;points=[];fontFamily=Roboto Mono;fontColor=#990000;fontStyle=1;fontSize=12;" parent="88" vertex="1" connectable="0">
          <mxGeometry x="-0.2766" y="-1" relative="1" as="geometry">
            <mxPoint x="1" y="5" as="offset" />
          </mxGeometry>
        </mxCell>
        <mxCell id="koFQHZJ2Hu2gIqDtlJuo-88" value="" style="group" parent="1" vertex="1" connectable="0">
          <mxGeometry x="202" y="530" width="420" height="200" as="geometry" />
        </mxCell>
        <mxCell id="hRFAbsjcRLbfjvgZ6pab-96" value="WiFi board" style="shape=process;whiteSpace=wrap;align=center;verticalAlign=top;size=0.0475;fontStyle=1;strokeWidth=3;fillColor=#f8cecc;fontFamily=Roboto Mono;fontSource=https%3A%2F%2Ffonts.googleapis.com%2Fcss%3Ffamily%3DRoboto%2BMono;strokeColor=#b85450;fontSize=14;" parent="koFQHZJ2Hu2gIqDtlJuo-88" vertex="1">
          <mxGeometry width="420" height="200" as="geometry" />
        </mxCell>
        <mxCell id="qDI1Qx--c8H5x65NJ5Sx-124" value="&lt;p style=&quot;line-height: 20%;&quot;&gt;http://ip/status/&lt;/p&gt;" style="verticalAlign=middle;align=center;overflow=fill;fontSize=12;fontFamily=Roboto Mono;html=1;rounded=1;fontStyle=1;strokeWidth=3;fillColor=#E6FFCC;fontSource=https%3A%2F%2Ffonts.googleapis.com%2Fcss%3Ffamily%3DRoboto%2BMono;" parent="koFQHZJ2Hu2gIqDtlJuo-88" vertex="1">
          <mxGeometry x="112" y="30" width="197" height="30" as="geometry" />
        </mxCell>
        <mxCell id="qDI1Qx--c8H5x65NJ5Sx-125" value="&lt;p style=&quot;line-height: 40%;&quot;&gt;ws://ip/stream/&lt;/p&gt;" style="verticalAlign=middle;align=center;overflow=fill;fontSize=12;fontFamily=Roboto Mono;html=1;rounded=1;fontStyle=1;strokeWidth=3;fillColor=#E6FFCC;fontSource=https%3A%2F%2Ffonts.googleapis.com%2Fcss%3Ffamily%3DRoboto%2BMono;" parent="koFQHZJ2Hu2gIqDtlJuo-88" vertex="1">
          <mxGeometry x="112" y="80" width="197" height="30" as="geometry" />
        </mxCell>
        <mxCell id="qDI1Qx--c8H5x65NJ5Sx-126" value="spi" style="whiteSpace=wrap;align=center;verticalAlign=middle;fontStyle=1;strokeWidth=3;fillColor=#e1d5e7;fontFamily=Roboto Mono;fontSource=https%3A%2F%2Ffonts.googleapis.com%2Fcss%3Ffamily%3DRoboto%2BMono;rounded=1;strokeColor=#9673a6;" parent="koFQHZJ2Hu2gIqDtlJuo-88" vertex="1">
          <mxGeometry x="170" y="120" width="80" height="30" as="geometry" />
        </mxCell>
        <mxCell id="qDI1Qx--c8H5x65NJ5Sx-127" value="" style="shape=curlyBracket;whiteSpace=wrap;html=1;rounded=1;flipH=1;labelPosition=right;verticalLabelPosition=middle;align=left;verticalAlign=middle;rotation=90;strokeWidth=2;fillColor=#e1d5e7;strokeColor=#9673A6;" parent="koFQHZJ2Hu2gIqDtlJuo-88" vertex="1">
          <mxGeometry x="199.69" y="109.19000000000005" width="20" height="106.25" as="geometry" />
        </mxCell>
        <mxCell id="qDI1Qx--c8H5x65NJ5Sx-128" value="&lt;font color=&quot;#9673A6&quot;&gt;libs&lt;/font&gt;" style="text;html=1;strokeColor=none;fillColor=none;align=center;verticalAlign=middle;whiteSpace=wrap;rounded=0;strokeWidth=2;fontFamily=Roboto Mono;fontSource=https%3A%2F%2Ffonts.googleapis.com%2Fcss%3Ffamily%3DRoboto%2BMono;fontStyle=1;fontColor=#D79B00;" parent="koFQHZJ2Hu2gIqDtlJuo-88" vertex="1">
          <mxGeometry x="181" y="167.5" width="59" height="30" as="geometry" />
        </mxCell>
        <mxCell id="koFQHZJ2Hu2gIqDtlJuo-89" value="" style="group" parent="1" vertex="1" connectable="0">
          <mxGeometry x="212" y="80" width="400" height="350" as="geometry" />
        </mxCell>
        <mxCell id="5" value="Atmega2560 microcontroller" style="shape=process;whiteSpace=wrap;align=center;verticalAlign=top;size=0.0475;fontStyle=1;strokeWidth=3;fillColor=#f8cecc;fontFamily=Roboto Mono;fontSource=https%3A%2F%2Ffonts.googleapis.com%2Fcss%3Ffamily%3DRoboto%2BMono;fontSize=14;strokeColor=#b85450;" parent="koFQHZJ2Hu2gIqDtlJuo-89" vertex="1">
          <mxGeometry width="400" height="350" as="geometry" />
        </mxCell>
        <mxCell id="2" value="&lt;p style=&quot;margin: 4px 0px 0px; text-align: center;&quot;&gt;&lt;strong&gt;propeller&lt;br&gt;&lt;/strong&gt;&lt;/p&gt;" style="verticalAlign=middle;align=center;overflow=fill;fontSize=12;fontFamily=Roboto Mono;html=1;rounded=1;fontStyle=1;strokeWidth=3;fillColor=#E6FFCC;fontSource=https%3A%2F%2Ffonts.googleapis.com%2Fcss%3Ffamily%3DRoboto%2BMono;" parent="koFQHZJ2Hu2gIqDtlJuo-89" vertex="1">
          <mxGeometry x="161.75" y="150" width="76.5" height="30" as="geometry" />
        </mxCell>
        <mxCell id="3" value="pitch" style="whiteSpace=wrap;align=center;verticalAlign=middle;fontStyle=1;strokeWidth=3;fillColor=#ffe6cc;fontFamily=Roboto Mono;fontSource=https%3A%2F%2Ffonts.googleapis.com%2Fcss%3Ffamily%3DRoboto%2BMono;strokeColor=#d79b00;rounded=1;" parent="koFQHZJ2Hu2gIqDtlJuo-89" vertex="1">
          <mxGeometry x="70" y="270" width="80" height="30" as="geometry" />
        </mxCell>
        <mxCell id="7" value="&lt;p style=&quot;margin: 4px 0px 0px; text-align: center;&quot;&gt;&lt;strong&gt;thrust vector control&lt;/strong&gt;&lt;/p&gt;" style="verticalAlign=middle;align=center;overflow=fill;fontSize=12;fontFamily=Roboto Mono;html=1;rounded=1;fontStyle=1;strokeWidth=3;fillColor=#E6FFCC;fontSource=https%3A%2F%2Ffonts.googleapis.com%2Fcss%3Ffamily%3DRoboto%2BMono;" parent="koFQHZJ2Hu2gIqDtlJuo-89" vertex="1">
          <mxGeometry x="112.5" y="110" width="180" height="28.75" as="geometry" />
        </mxCell>
        <mxCell id="8" value="&lt;p style=&quot;margin: 4px 0px 0px; text-align: center;&quot;&gt;&lt;strong&gt;inertial measurement unit&lt;br&gt;&lt;/strong&gt;&lt;/p&gt;" style="verticalAlign=middle;align=center;overflow=fill;fontSize=12;fontFamily=Roboto Mono;html=1;rounded=1;fontStyle=1;strokeWidth=3;fillColor=#E6FFCC;fontSource=https%3A%2F%2Ffonts.googleapis.com%2Fcss%3Ffamily%3DRoboto%2BMono;" parent="koFQHZJ2Hu2gIqDtlJuo-89" vertex="1">
          <mxGeometry x="100" y="70" width="200" height="30" as="geometry" />
        </mxCell>
        <mxCell id="qDI1Qx--c8H5x65NJ5Sx-96" value="&lt;p style=&quot;margin: 4px 0px 0px; text-align: center;&quot;&gt;&lt;strong&gt;controller&lt;br&gt;&lt;/strong&gt;&lt;/p&gt;" style="verticalAlign=middle;align=center;overflow=fill;fontSize=12;fontFamily=Roboto Mono;html=1;rounded=1;fontStyle=1;strokeWidth=3;fillColor=#E6FFCC;fontSource=https%3A%2F%2Ffonts.googleapis.com%2Fcss%3Ffamily%3DRoboto%2BMono;" parent="koFQHZJ2Hu2gIqDtlJuo-89" vertex="1">
          <mxGeometry x="156" y="30" width="90" height="30" as="geometry" />
        </mxCell>
        <mxCell id="qDI1Qx--c8H5x65NJ5Sx-97" value="roll" style="whiteSpace=wrap;align=center;verticalAlign=middle;fontStyle=1;strokeWidth=3;fillColor=#ffe6cc;fontFamily=Roboto Mono;fontSource=https%3A%2F%2Ffonts.googleapis.com%2Fcss%3Ffamily%3DRoboto%2BMono;strokeColor=#d79b00;rounded=1;" parent="koFQHZJ2Hu2gIqDtlJuo-89" vertex="1">
          <mxGeometry x="161.5" y="270" width="80" height="30" as="geometry" />
        </mxCell>
        <mxCell id="qDI1Qx--c8H5x65NJ5Sx-98" value="base" style="whiteSpace=wrap;align=center;verticalAlign=middle;fontStyle=1;strokeWidth=3;fillColor=#ffe6cc;fontFamily=Roboto Mono;fontSource=https%3A%2F%2Ffonts.googleapis.com%2Fcss%3Ffamily%3DRoboto%2BMono;strokeColor=#D79B00;rounded=1;" parent="koFQHZJ2Hu2gIqDtlJuo-89" vertex="1">
          <mxGeometry x="253" y="270" width="80" height="30" as="geometry" />
        </mxCell>
        <mxCell id="qDI1Qx--c8H5x65NJ5Sx-104" value="" style="shape=curlyBracket;whiteSpace=wrap;html=1;rounded=1;flipH=1;labelPosition=right;verticalLabelPosition=middle;align=left;verticalAlign=middle;rotation=90;strokeWidth=2;fillColor=#ffe6cc;strokeColor=#d79b00;" parent="koFQHZJ2Hu2gIqDtlJuo-89" vertex="1">
          <mxGeometry x="192.5" y="172.5" width="20" height="295" as="geometry" />
        </mxCell>
        <mxCell id="qDI1Qx--c8H5x65NJ5Sx-105" value="actuators" style="text;html=1;strokeColor=none;fillColor=none;align=center;verticalAlign=middle;whiteSpace=wrap;rounded=0;strokeWidth=2;fontFamily=Roboto Mono;fontSource=https%3A%2F%2Ffonts.googleapis.com%2Fcss%3Ffamily%3DRoboto%2BMono;fontStyle=1;fontColor=#D79B00;" parent="koFQHZJ2Hu2gIqDtlJuo-89" vertex="1">
          <mxGeometry x="170" y="320" width="60" height="30" as="geometry" />
        </mxCell>
        <mxCell id="qDI1Qx--c8H5x65NJ5Sx-110" value="pwm" style="whiteSpace=wrap;align=center;verticalAlign=middle;fontStyle=1;strokeWidth=3;fillColor=#e1d5e7;fontFamily=Roboto Mono;fontSource=https%3A%2F%2Ffonts.googleapis.com%2Fcss%3Ffamily%3DRoboto%2BMono;rounded=1;strokeColor=#9673a6;" parent="koFQHZJ2Hu2gIqDtlJuo-89" vertex="1">
          <mxGeometry x="160" y="190" width="80" height="30" as="geometry" />
        </mxCell>
        <mxCell id="qDI1Qx--c8H5x65NJ5Sx-111" value="i2c" style="whiteSpace=wrap;align=center;verticalAlign=middle;fontStyle=1;strokeWidth=3;fillColor=#e1d5e7;fontFamily=Roboto Mono;fontSource=https%3A%2F%2Ffonts.googleapis.com%2Fcss%3Ffamily%3DRoboto%2BMono;rounded=1;strokeColor=#9673a6;" parent="koFQHZJ2Hu2gIqDtlJuo-89" vertex="1">
          <mxGeometry x="70" y="190" width="80" height="30" as="geometry" />
        </mxCell>
        <mxCell id="qDI1Qx--c8H5x65NJ5Sx-114" value="spi" style="whiteSpace=wrap;align=center;verticalAlign=middle;fontStyle=1;strokeWidth=3;fillColor=#e1d5e7;fontFamily=Roboto Mono;fontSource=https%3A%2F%2Ffonts.googleapis.com%2Fcss%3Ffamily%3DRoboto%2BMono;rounded=1;strokeColor=#9673a6;" parent="koFQHZJ2Hu2gIqDtlJuo-89" vertex="1">
          <mxGeometry x="253" y="190" width="80" height="30" as="geometry" />
        </mxCell>
        <mxCell id="qDI1Qx--c8H5x65NJ5Sx-115" value="" style="shape=curlyBracket;whiteSpace=wrap;html=1;rounded=1;flipH=1;labelPosition=right;verticalLabelPosition=middle;align=left;verticalAlign=middle;rotation=90;strokeWidth=2;fillColor=#e1d5e7;strokeColor=#9673A6;" parent="koFQHZJ2Hu2gIqDtlJuo-89" vertex="1">
          <mxGeometry x="190" y="90" width="20" height="289.62" as="geometry" />
        </mxCell>
        <mxCell id="qDI1Qx--c8H5x65NJ5Sx-116" value="&lt;font color=&quot;#9673A6&quot;&gt;libs&lt;/font&gt;" style="text;html=1;strokeColor=none;fillColor=none;align=center;verticalAlign=middle;whiteSpace=wrap;rounded=0;strokeWidth=2;fontFamily=Roboto Mono;fontSource=https%3A%2F%2Ffonts.googleapis.com%2Fcss%3Ffamily%3DRoboto%2BMono;fontStyle=1;fontColor=#D79B00;" parent="koFQHZJ2Hu2gIqDtlJuo-89" vertex="1">
          <mxGeometry x="170.5" y="240" width="59" height="30" as="geometry" />
        </mxCell>
      </root>
    </mxGraphModel>
  </diagram>
</mxfile>
